<?xml version="1.0" encoding="UTF-8"?>
<svg viewBox="0 0 400 50" xmlns="http://www.w3.org/2000/svg">
<path d="m153.87 21.19c-0.091-1.0765-0.559-1.8301-1.995-2.0523-1.37-0.2139-2.021 0.2338-2.134 0.9475-0.13 0.8214 0.413 1.2222 1.828 1.664 0.6 0.1891 1.201 0.3764 1.802 0.5621 3.564 1.1014 4.701 2.5831 4.375 5.1063-0.358 2.8181-2.909 4.7351-7.506 4.03-4.574-0.7114-6.877-2.967-6.006-6.4983 1.441 0.2546 2.884 0.4992 4.327 0.7341-0.29 1.1047 0.152 2.0701 2.278 2.4005 1.634 0.2513 2.399-0.1486 2.52-0.9933 0.105-0.7373-0.309-1.1725-1.545-1.5597-0.593-0.1864-1.185-0.3745-1.776-0.5641-3.594-1.15-5.023-2.8631-4.572-5.4695 0.433-2.4862 2.668-4.4032 6.986-3.7267 4.083 0.6292 6 2.7453 5.649 5.9946-1.411-0.1822-2.822-0.374-4.231-0.5752z" fill="#FD0104"/>
<path d="m159.18 26.237c0.38-3.0128 0.759-6.0253 1.139-9.0382 1.412 0.1823 2.824 0.3549 4.238 0.5179-0.332 2.9523-0.665 5.9047-0.997 8.857-0.2 1.762 0.487 2.7258 2.103 2.9007 1.616 0.1733 2.487-0.6228 2.659-2.3876 0.289-2.957 0.578-5.9139 0.867-8.8709 1.416 0.1418 2.832 0.274 4.248 0.3965-0.256 3.0262-0.511 6.0523-0.766 9.0783-0.334 4.0768-2.918 6.2064-7.423 5.7257-4.504-0.4902-6.59-3.123-6.068-7.1794z" fill="#FD0104"/>
<path d="m174.2 33.95c0.396-5.0582 0.792-10.116 1.187-15.175 2.242 0.1798 4.484 0.3354 6.728 0.4668 3.509 0.2047 5.842 2.3238 5.723 5.6529-0.119 3.3026-2.692 5.2733-6.335 5.0613-0.853-0.05-1.706-0.1033-2.558-0.16-0.097 1.4935-0.194 2.9868-0.291 4.4803-1.485-0.0988-2.97-0.2077-4.454-0.3267zm4.98-7.7815c0.681 0.0452 1.361 0.0884 2.042 0.1292 1.31 0.0784 2.034-0.5645 2.088-1.614 0.053-1.0287-0.591-1.7629-1.951-1.8445-0.652-0.0392-1.303-0.0806-1.954-0.1238-0.075 1.1509-0.15 2.3021-0.225 3.4531z" fill="#FD0104"/>
<path d="m188.83 34.795c0.175-5.0709 0.35-10.142 0.525-15.213 3.673 0.13 7.347 0.1953 11.021 0.196 0 1.2411-1e-3 2.4823-1e-3 3.7234-2.28-4e-4 -4.56-0.0254-6.839-0.0751-0.015 0.6788-0.029 1.3576-0.043 2.0365 1.947 0.0424 3.894 0.0669 5.842 0.0736-4e-3 1.2046-8e-3 2.4093-0.012 3.6139-1.969-0.0068-3.938-0.0316-5.907-0.0745-0.015 0.708-0.03 1.4161-0.045 2.1241 2.364 0.0514 4.728 0.077 7.093 0.0768v3.7234c-3.879 4e-4 -7.757-0.0681-11.634-0.2053z" fill="#FD0104"/>
<path d="m215.83 30.779c0.059 1.2616 0.117 2.5234 0.176 3.785-0.359 0.1269-0.88 0.2165-1.38 0.238-2.776 0.12-5.068-0.4953-6.684-4.3356-0.063-0.1447-0.126-0.2892-0.189-0.4338-0.419 0.0094-0.838 0.0181-1.257 0.026 0.03 1.6278 0.06 3.2555 0.09 4.8834-1.488 0.0279-2.976 0.0457-4.463 0.0534-0.026-5.074-0.051-10.148-0.077-15.222 2.326-0.0121 4.652-0.05 6.978-0.1138 3.535-0.0976 6.048 1.5711 6.214 5.0299 0.109 2.3402-1.027 3.8668-3.159 4.4927 1.025 1.7166 2.135 1.7149 3.033 1.6739 0.271-0.0123 0.539-0.0468 0.718-0.0772zm-9.458-7.487c0.02 1.1022 0.041 2.2043 0.061 3.3066 0.792-0.0148 1.584-0.0326 2.375-0.0534 1.311-0.0349 1.933-0.7363 1.901-1.7209-0.031-0.9637-0.69-1.6194-2.051-1.5835-0.762 0.0198-1.524 0.0368-2.286 0.0512z" fill="#FD0104"/>
<path d="m217.51 34.555c-0.258-5.0673-0.515-10.135-0.773-15.202 2.244-0.117 4.487-0.2582 6.729-0.4235 3.574-0.2668 5.538 1.1661 5.763 3.6339 0.161 1.7887-0.977 3.0368-2.302 3.5199 1.835 0.3309 3.13 1.264 3.305 3.1837 0.26 2.8099-1.599 4.5356-5.173 4.8071-2.515 0.1893-5.031 0.3496-7.549 0.4809zm3.868-9.4425c0.715-0.0471 1.43-0.0965 2.145-0.1484 1.062-0.0771 1.549-0.6877 1.481-1.5826-0.069-0.8954-0.636-1.3994-1.687-1.3229-0.708 0.0514-1.417 0.1005-2.125 0.147 0.062 0.969 0.124 1.9379 0.186 2.9069zm0.391 6.0761c0.72-0.0474 1.441-0.0973 2.162-0.1495 1.239-0.0902 1.827-0.6873 1.753-1.6477-0.074-0.9613-0.74-1.4562-1.967-1.3671-0.714 0.0517-1.428 0.1011-2.142 0.1481 0.064 1.0054 0.129 2.0108 0.194 3.0162z" fill="#FD0104"/>
<path d="m232.06 33.472c-0.478-5.051-0.955-10.102-1.433-15.153 3.626-0.3511 7.247-0.7655 10.862-1.2434 0.158 1.2306 0.317 2.4614 0.476 3.692-2.229 0.2946-4.46 0.5655-6.694 0.8125 0.073 0.675 0.146 1.3499 0.219 2.0249 1.939-0.2145 3.876-0.4468 5.812-0.6969 0.151 1.195 0.301 2.3898 0.452 3.5848-1.957 0.2528-3.916 0.4878-5.876 0.7046 0.076 0.7039 0.152 1.4081 0.228 2.1119 2.354-0.2604 4.706-0.5465 7.055-0.8586 0.16 1.2306 0.319 2.4611 0.479 3.6917-3.854 0.512-7.715 0.9551-11.58 1.3294zm16.892-2.0793c-0.553-3.7918-1.106-7.5836-1.659-11.375-1.317 0.1967-2.634 0.3851-3.952 0.5653-0.164-1.23-0.328-2.46-0.492-3.6899 4.038-0.5518 8.068-1.1828 12.088-1.893 0.211 1.2226 0.422 2.4453 0.632 3.668-1.333 0.2356-2.668 0.4626-4.004 0.681 0.604 3.7839 1.207 7.5677 1.811 11.352-1.473 0.2409-2.948 0.4716-4.424 0.6923z" fill="#FD0104"/>
</svg>
